<?xml version="1.0" standalone="no"?>
<!DOCTYPE svg PUBLIC "-//W3C//DTD SVG 20010904//EN"
 "http://www.w3.org/TR/2001/REC-SVG-20010904/DTD/svg10.dtd">
<svg version="1.0" xmlns="http://www.w3.org/2000/svg"
 width="260.000000pt" height="260.000000pt" viewBox="0 0 260.000000 260.000000"
 preserveAspectRatio="xMidYMid meet">
<metadata>
Created by potrace 1.11, written by Peter Selinger 2001-2013
</metadata>
<g transform="translate(0.000000,260.000000) scale(0.100000,-0.100000)"
fill="#000000" stroke="none">
<path d="M615 2586 c-236 -59 -351 -280 -265 -510 43 -114 120 -170 350 -251
83 -29 167 -66 187 -81 141 -107 58 -332 -130 -351 -146 -15 -301 94 -339 240
-12 46 -13 47 -50 47 l-38 0 0 -165 0 -165 30 0 c19 0 33 7 40 20 14 27 63 26
159 -2 107 -31 253 -31 333 1 126 49 211 134 249 250 17 51 20 80 17 150 -6
111 -32 173 -102 240 -65 61 -115 86 -286 146 -198 69 -248 106 -258 190 -6
60 13 109 59 148 147 126 392 24 443 -185 6 -25 11 -28 46 -28 l40 0 0 155 0
155 -33 0 c-22 0 -36 -7 -45 -21 -16 -25 -38 -23 -161 11 -83 22 -171 25 -246
6z"/>
<path d="M1670 2584 c-191 -41 -330 -183 -387 -394 -25 -92 -25 -348 1 -440
68 -248 232 -387 478 -406 244 -19 442 85 533 278 57 120 69 184 69 348 0 165
-15 244 -66 349 -42 86 -142 188 -221 225 -115 54 -272 70 -407 40z m227 -54
c56 -25 97 -90 120 -189 15 -64 18 -123 18 -371 0 -331 -10 -407 -66 -494 -72
-115 -240 -113 -311 4 -51 84 -60 142 -65 422 -9 431 24 576 141 629 53 24
110 24 163 -1z"/>
<path d="M1806 1244 c-218 -49 -366 -207 -412 -444 -20 -101 -14 -290 11 -385
58 -214 205 -357 410 -400 97 -20 172 -19 302 6 105 21 114 21 131 6 10 -10
33 -17 50 -17 l32 0 0 176 0 175 -37 -3 c-35 -3 -37 -5 -48 -53 -36 -151 -122
-234 -253 -242 -56 -4 -74 -1 -112 19 -127 66 -178 247 -167 593 6 191 22 292
61 379 102 230 386 177 464 -86 16 -55 19 -58 50 -58 l32 0 0 170 0 170 -25 0
c-14 0 -28 -7 -31 -15 -10 -25 -40 -26 -121 -5 -104 28 -248 34 -337 14z"/>
<path d="M220 1205 c0 -22 4 -25 39 -25 46 0 68 -18 76 -63 3 -18 5 -249 3
-513 -3 -458 -4 -483 -22 -503 -13 -14 -31 -21 -58 -21 -34 0 -38 -3 -38 -25
l0 -25 358 0 c387 0 442 6 550 55 66 30 125 83 155 140 31 57 31 193 0 251
-43 81 -137 146 -247 169 -33 7 -54 15 -46 18 132 45 147 53 200 106 63 63 80
105 80 198 0 140 -99 224 -297 253 -38 5 -222 10 -410 10 l-343 0 0 -25z m617
-50 c21 -9 46 -23 56 -33 58 -52 83 -191 53 -293 -31 -109 -89 -148 -218 -149
l-78 0 0 245 0 245 75 0 c45 0 90 -6 112 -15z m33 -555 c78 -40 110 -111 110
-245 0 -194 -65 -265 -245 -265 l-85 0 0 266 0 267 98 -5 c53 -3 108 -11 122
-18z"/>
</g>
</svg>
