<?xml version="1.0" standalone="no"?>
<!DOCTYPE svg PUBLIC "-//W3C//DTD SVG 20010904//EN"
 "http://www.w3.org/TR/2001/REC-SVG-20010904/DTD/svg10.dtd">
<svg version="1.0" xmlns="http://www.w3.org/2000/svg"
 width="260.000000pt" height="260.000000pt" viewBox="0 0 260.000000 260.000000"
 preserveAspectRatio="xMidYMid meet">
<metadata>
Created by potrace 1.11, written by Peter Selinger 2001-2013
</metadata>
<g transform="translate(0.000000,260.000000) scale(0.100000,-0.100000)"
fill="#000000" stroke="none">
<path d="M313 1560 c-184 -34 -297 -132 -297 -260 0 -134 116 -230 317 -261
87 -14 182 -6 268 21 86 27 88 29 95 86 l7 49 -34 -34 c-98 -99 -306 -109
-428 -21 -108 79 -108 241 1 320 118 86 334 77 407 -16 23 -29 26 -26 35 42
l6 42 -67 16 c-80 21 -239 28 -310 16z"/>
<path d="M1903 1560 c-184 -34 -297 -132 -297 -260 0 -134 116 -230 317 -261
87 -14 182 -6 268 21 86 27 88 29 95 86 l7 49 -34 -34 c-98 -99 -306 -109
-428 -21 -108 79 -108 241 1 320 118 86 334 77 407 -16 23 -29 26 -26 35 42
l6 42 -67 16 c-80 21 -239 28 -310 16z"/>
<path d="M775 1548 c43 -23 45 -33 45 -248 0 -215 -2 -225 -45 -248 -15 -9 9
-11 105 -11 l125 0 -27 20 c-27 20 -28 23 -28 120 l0 99 210 0 210 0 0 -100 0
-100 -32 -20 -33 -20 125 0 125 1 -27 20 -28 21 0 214 0 215 26 24 27 25 -124
0 c-95 -1 -119 -3 -104 -12 39 -21 45 -39 45 -130 l0 -88 -210 0 -210 0 0 90
c0 85 2 92 26 115 l27 25 -124 0 c-95 -1 -119 -3 -104 -12z"/>
<path d="M2370 1547 l25 -13 3 -224 c3 -219 2 -225 -19 -242 -20 -17 -17 -18
92 -18 90 1 110 3 94 12 -11 6 -23 16 -27 22 -4 6 -8 105 -8 219 0 208 0 208
25 232 l24 25 -117 0 c-101 0 -114 -2 -92 -13z"/>
</g>
</svg>
